<svg width="22" height="22" viewBox="0 0 22 22" fill="none" xmlns="http://www.w3.org/2000/svg">
<path d="M17.3477 7.93262C17.6343 7.15794 17.7174 6.97399 17.8477 6.84375C17.9779 6.71358 18.1614 6.63023 18.9355 6.34375L19.4824 6.1416L19.4824 4.85645L18.9355 4.6543C18.1614 4.36781 17.9779 4.28447 17.8477 4.1543C17.7174 4.02406 17.6343 3.84011 17.3477 3.06543L17.1455 2.51953L15.8604 2.51953L15.6582 3.06543C15.3715 3.84011 15.2875 4.02406 15.1572 4.1543C15.027 4.2843 14.8432 4.36794 14.0693 4.6543L13.5234 4.85645V6.1416L14.0693 6.34375C14.8432 6.63011 15.027 6.71375 15.1572 6.84375C15.2875 6.97399 15.3715 7.15794 15.6582 7.93262L15.8604 8.47852H17.1455L17.3477 7.93262ZM10.2842 18.2021C10.925 16.4703 11.185 15.8083 11.6641 15.3291C12.1433 14.8499 12.8051 14.5892 14.5371 13.9482L15.8135 13.4766L15.8135 12.1885L14.5371 11.7158C12.8052 11.075 12.1432 10.8151 11.6641 10.3359C11.1849 9.85676 10.925 9.19477 10.2842 7.46289L9.81152 6.18652L8.52344 6.18652L8.05176 7.46289C7.41084 9.19493 7.1501 9.85674 6.6709 10.3359C6.1917 10.815 5.52975 11.075 3.79785 11.7158L2.52148 12.1885V13.4766L3.79785 13.9482C5.53004 14.5892 6.19168 14.8499 6.6709 15.3291C7.15012 15.8083 7.41079 16.47 8.05176 18.2021L8.52344 19.4785H9.81152L10.2842 18.2021Z" fill="#335CFF" style="fill:#335CFF;fill:color(display-p3 0.2000 0.3608 1.0000);fill-opacity:1;"/>
</svg>
