<svg width="22" height="22" viewBox="0 0 22 22" fill="none" xmlns="http://www.w3.org/2000/svg">
<g clip-path="url(#clip0_1039_1874)">
<path d="M11.0006 21.6427C16.8692 21.6427 21.6562 16.8617 21.6562 10.9993C21.6562 5.13685 16.8692 0.357178 11.0006 0.357178C5.13206 0.357178 0.34375 5.13814 0.34375 10.9993C0.34375 16.8604 5.13077 21.6427 11.0006 21.6427Z" fill="#FB8500" style="fill:#FB8500;fill:color(display-p3 0.9843 0.5216 0.0000);fill-opacity:1;"/>
<path d="M11.0006 0.357178C5.13077 0.357178 0.34375 5.13814 0.34375 10.9993C0.34375 16.8604 5.13077 21.6427 11.0006 21.6427C16.8705 21.6427 21.6562 16.8617 21.6562 10.9993C21.6562 5.13685 16.8692 0.357178 11.0006 0.357178ZM11.0006 19.1243C6.51952 19.1243 2.86524 15.4747 2.86524 10.9992C2.86524 6.5238 6.51952 2.87416 11.0006 2.87416C15.4818 2.87416 19.136 6.52508 19.136 10.9992C19.136 15.4734 15.4805 19.1243 11.0006 19.1243Z" fill="#FFB703" style="fill:#FFB703;fill:color(display-p3 1.0000 0.7176 0.0118);fill-opacity:1;"/>
<path d="M3.47157 3.47952L5.2528 5.25846C6.7265 3.78661 8.76021 2.87396 11.0007 2.87396V0.356934C8.06605 0.356934 5.40203 1.55194 3.47157 3.47952Z" fill="#FCD227" style="fill:#FCD227;fill:color(display-p3 0.9882 0.8235 0.1529);fill-opacity:1;"/>
<path d="M18.5297 18.5187L16.7485 16.7397C15.2746 18.2117 13.2406 19.1243 11.0006 19.1243V21.6426C13.9351 21.6426 16.5993 20.4471 18.5296 18.5187L18.5297 18.5187Z" fill="#FCD227" style="fill:#FCD227;fill:color(display-p3 0.9882 0.8235 0.1529);fill-opacity:1;"/>
<path d="M18.5291 3.48022L16.7482 5.25887C18.2221 6.73085 19.136 8.76212 19.136 10.9992H21.6562C21.6562 8.06864 20.4595 5.4081 18.5291 3.48022Z" fill="#FCD227" style="fill:#FCD227;fill:color(display-p3 0.9882 0.8235 0.1529);fill-opacity:1;"/>
<path d="M3.47097 18.5192L5.2525 16.7399C3.7788 15.268 2.8652 13.2367 2.8652 10.999H0.34375C0.34375 13.9302 1.54052 16.5911 3.47097 18.5192Z" fill="#FCD227" style="fill:#FCD227;fill:color(display-p3 0.9882 0.8235 0.1529);fill-opacity:1;"/>
<path d="M14.6536 10.5596C14.6536 10.5596 14.6536 10.5595 14.6535 10.5595L11.5984 6.40268C11.454 6.20709 11.2415 6.09937 11 6.09937C10.7585 6.09937 10.546 6.20709 10.4013 6.40307L7.34631 10.5596C7.15338 10.8226 7.15338 11.1761 7.34644 11.4393L10.4016 15.5961C10.5459 15.7917 10.7585 15.8994 11 15.8994C11.2415 15.8994 11.454 15.7917 11.5987 15.5957L14.6537 11.4392C14.8467 11.1761 14.8466 10.8227 14.6537 10.5596H14.6536Z" fill="#FCD227" style="fill:#FCD227;fill:color(display-p3 0.9882 0.8235 0.1529);fill-opacity:1;"/>
<path fill-rule="evenodd" clip-rule="evenodd" d="M11.2627 4.34412C11.4637 4.54633 11.4637 4.87285 11.2627 5.07385C11.0617 5.27486 10.7352 5.27486 10.533 5.07385C10.332 4.87285 10.332 4.54637 10.533 4.34412C10.7352 4.14311 11.0617 4.14311 11.2627 4.34412Z" fill="#FFB703" style="fill:#FFB703;fill:color(display-p3 1.0000 0.7176 0.0118);fill-opacity:1;"/>
<path fill-rule="evenodd" clip-rule="evenodd" d="M6.47984 7.14038C6.76472 7.14038 6.99606 6.90783 6.99606 6.62415C6.99606 6.34047 6.76472 6.10913 6.47984 6.10913C6.19495 6.10913 5.96481 6.34047 5.96481 6.62415C5.96481 6.90783 6.19616 7.14038 6.47984 7.14038Z" fill="#FFB703" style="fill:#FFB703;fill:color(display-p3 1.0000 0.7176 0.0118);fill-opacity:1;"/>
<path fill-rule="evenodd" clip-rule="evenodd" d="M4.34589 10.7374C4.5481 10.5364 4.87462 10.5364 5.07562 10.7374C5.27663 10.9384 5.27663 11.2662 5.07562 11.4672C4.87462 11.6682 4.54814 11.6682 4.34589 11.4672C4.14488 11.2662 4.14488 10.9384 4.34589 10.7374Z" fill="#FFB703" style="fill:#FFB703;fill:color(display-p3 1.0000 0.7176 0.0118);fill-opacity:1;"/>
<path fill-rule="evenodd" clip-rule="evenodd" d="M6.11093 15.5201C6.11093 15.2353 6.34103 15.0039 6.62596 15.0039C6.91088 15.0039 7.14098 15.2353 7.14098 15.5201C7.14098 15.805 6.91088 16.0352 6.62596 16.0352C6.34103 16.0352 6.11093 15.8038 6.11093 15.5201Z" fill="#FFB703" style="fill:#FFB703;fill:color(display-p3 1.0000 0.7176 0.0118);fill-opacity:1;"/>
<path fill-rule="evenodd" clip-rule="evenodd" d="M10.739 17.6542C10.538 17.452 10.538 17.1254 10.739 16.9244C10.94 16.7234 11.2665 16.7234 11.4687 16.9244C11.6697 17.1254 11.6697 17.4519 11.4687 17.6542C11.2665 17.8552 10.94 17.8552 10.739 17.6542Z" fill="#FFB703" style="fill:#FFB703;fill:color(display-p3 1.0000 0.7176 0.0118);fill-opacity:1;"/>
<path fill-rule="evenodd" clip-rule="evenodd" d="M15.5208 15.8896C15.2367 15.8896 15.0051 15.6593 15.0051 15.374C15.0051 15.0888 15.2367 14.8584 15.5208 14.8584C15.8048 14.8584 16.0376 15.0888 16.0376 15.374C16.0376 15.6593 15.806 15.8896 15.5208 15.8896Z" fill="#FFB703" style="fill:#FFB703;fill:color(display-p3 1.0000 0.7176 0.0118);fill-opacity:1;"/>
<path fill-rule="evenodd" clip-rule="evenodd" d="M17.6559 11.2609C17.4537 11.4619 17.1272 11.4619 16.9261 11.2609C16.7251 11.0599 16.7251 10.7334 16.9261 10.5311C17.1272 10.3301 17.4537 10.3301 17.6559 10.5311C17.8569 10.7333 17.8569 11.0599 17.6559 11.2609Z" fill="#FFB703" style="fill:#FFB703;fill:color(display-p3 1.0000 0.7176 0.0118);fill-opacity:1;"/>
<path fill-rule="evenodd" clip-rule="evenodd" d="M15.8908 6.47936C15.8908 6.76304 15.6607 6.99438 15.3758 6.99438C15.0909 6.99438 14.8608 6.76304 14.8608 6.47936C14.8608 6.19568 15.0909 5.96313 15.3758 5.96313C15.6607 5.96313 15.8908 6.19448 15.8908 6.47936Z" fill="#FFB703" style="fill:#FFB703;fill:color(display-p3 1.0000 0.7176 0.0118);fill-opacity:1;"/>
</g>
<defs>
<clipPath id="clip0_1039_1874">
<rect width="22" height="22" fill="white" style="fill:white;fill-opacity:1;"/>
</clipPath>
</defs>
</svg>
