<svg width="101" height="100" viewBox="0 0 101 100" fill="none" xmlns="http://www.w3.org/2000/svg">
<path d="M75.5 20.8335L71.3333 27.0835L73.4166 33.3335L77.5833 27.0835H81.75V89.5835H27.5833L10.9166 72.9168V60.4168L17.1666 54.1668H25.5V47.9168L19.25 50.0002L15.0833 45.8335L10.9166 47.9168V6.25016C10.9166 5.14509 11.3556 4.08529 12.137 3.30388C12.9184 2.52248 13.9782 2.0835 15.0833 2.0835H77.5833C78.6884 2.0835 79.7482 2.52248 80.5296 3.30388C81.311 4.08529 81.75 5.14509 81.75 6.25016V12.5002L75.5 16.6668V20.8335Z" fill="url(#paint0_linear_71_6613)" style=""/>
<path d="M27.5833 77.0832V89.5832L10.9166 72.9165H23.4166C24.5217 72.9165 25.5815 73.3555 26.3629 74.1369C27.1443 74.9183 27.5833 75.9781 27.5833 77.0832Z" fill="#B4CDE1" style="fill:#B4CDE1;fill:color(display-p3 0.7059 0.8039 0.8824);fill-opacity:1;"/>
<path d="M75.5 97.9167C83.5541 97.9167 90.0833 91.3875 90.0833 83.3333C90.0833 75.2792 83.5541 68.75 75.5 68.75C67.4458 68.75 60.9166 75.2792 60.9166 83.3333C60.9166 91.3875 67.4458 97.9167 75.5 97.9167Z" fill="url(#paint1_linear_71_6613)" style=""/>
<path d="M78.3748 83.3339L81.1457 80.563C81.5337 80.1727 81.7515 79.6447 81.7515 79.0943C81.7515 78.5439 81.5337 78.0159 81.1457 77.6255C80.952 77.4302 80.7216 77.2753 80.4677 77.1695C80.2138 77.0637 79.9415 77.0093 79.6665 77.0093C79.3915 77.0093 79.1192 77.0637 78.8653 77.1695C78.6114 77.2753 78.381 77.4302 78.1873 77.6255L75.4998 80.313L72.729 77.5422C72.5422 77.3241 72.3124 77.147 72.0539 77.0219C71.7955 76.8969 71.514 76.8266 71.227 76.8155C70.9401 76.8044 70.654 76.8528 70.3867 76.9575C70.1193 77.0623 69.8765 77.2211 69.6735 77.4242C69.4705 77.6272 69.3116 77.87 69.2068 78.1373C69.1021 78.4047 69.0538 78.6908 69.0648 78.9777C69.0759 79.2646 69.1462 79.5462 69.2712 79.8046C69.3963 80.0631 69.5734 80.2929 69.7915 80.4797L72.479 83.3339L69.7082 86.1047C69.5129 86.2984 69.3579 86.5288 69.2522 86.7826C69.1464 87.0365 69.0919 87.3088 69.0919 87.5839C69.0919 87.8589 69.1464 88.1312 69.2522 88.385C69.3579 88.6389 69.5129 88.8693 69.7082 89.063C70.0985 89.451 70.6265 89.6688 71.1769 89.6688C71.7273 89.6688 72.2553 89.451 72.6457 89.063L75.4998 86.2089L78.2707 88.9797C78.4649 89.1739 78.6955 89.328 78.9493 89.4331C79.2031 89.5383 79.4751 89.5924 79.7498 89.5924C80.0246 89.5924 80.2966 89.5383 80.5504 89.4331C80.8042 89.328 81.0348 89.1739 81.229 88.9797C81.4233 88.7854 81.5773 88.5548 81.6825 88.301C81.7876 88.0472 81.8417 87.7752 81.8417 87.5005C81.8417 87.2258 81.7876 86.9538 81.6825 86.7C81.5773 86.4462 81.4233 86.2156 81.229 86.0214L78.3748 83.3339Z" fill="#F0F7FC" style="fill:#F0F7FC;fill:color(display-p3 0.9412 0.9686 0.9882);fill-opacity:1;"/>
<path d="M38.604 32.7296C38.9963 33.1219 39.5284 33.3422 40.0832 33.3422C40.638 33.3422 41.1701 33.1219 41.5624 32.7296C41.9547 32.3373 42.1751 31.8052 42.1751 31.2504C42.1751 30.6956 41.9547 30.1635 41.5624 29.7712L38.854 27.0837L41.5624 24.3962C41.7566 24.202 41.9107 23.9714 42.0158 23.7176C42.121 23.4638 42.1751 23.1918 42.1751 22.9171C42.1751 22.6423 42.121 22.3703 42.0158 22.1165C41.9107 21.8627 41.7566 21.6321 41.5624 21.4379C41.3681 21.2436 41.1375 21.0896 40.8837 20.9844C40.6299 20.8793 40.3579 20.8252 40.0832 20.8252C39.8085 20.8252 39.5365 20.8793 39.2827 20.9844C39.0289 21.0896 38.7983 21.2436 38.604 21.4379L35.9165 24.1462L33.229 21.4379C32.8367 21.0456 32.3047 20.8252 31.7499 20.8252C31.1951 20.8252 30.663 21.0456 30.2707 21.4379C29.8784 21.8302 29.658 22.3623 29.658 22.9171C29.658 23.4718 29.8784 24.0039 30.2707 24.3962L32.979 27.0837L30.2707 29.7712C29.8784 30.1635 29.658 30.6956 29.658 31.2504C29.658 31.8052 29.8784 32.3373 30.2707 32.7296C30.663 33.1219 31.1951 33.3422 31.7499 33.3422C32.3047 33.3422 32.8367 33.1219 33.229 32.7296L35.9165 30.0212L38.604 32.7296Z" fill="url(#paint2_linear_71_6613)" style=""/>
<path d="M59.6874 27.0837L62.3957 24.3962C62.59 24.202 62.7441 23.9714 62.8492 23.7176C62.9543 23.4638 63.0084 23.1918 63.0084 22.9171C63.0084 22.6423 62.9543 22.3703 62.8492 22.1165C62.7441 21.8627 62.59 21.6321 62.3957 21.4379C62.2015 21.2436 61.9709 21.0896 61.7171 20.9844C61.4633 20.8793 61.1913 20.8252 60.9166 20.8252C60.6419 20.8252 60.3699 20.8793 60.1161 20.9844C59.8623 21.0896 59.6317 21.2436 59.4374 21.4379L56.7499 24.1462L54.0624 21.4379C53.6701 21.0456 53.138 20.8252 52.5833 20.8252C52.0285 20.8252 51.4964 21.0456 51.1041 21.4379C50.7118 21.8302 50.4914 22.3623 50.4914 22.9171C50.4914 23.4718 50.7118 24.0039 51.1041 24.3962L53.8124 27.0837L51.1041 29.7712C50.9098 29.9655 50.7558 30.1961 50.6506 30.4499C50.5455 30.7037 50.4914 30.9757 50.4914 31.2504C50.4914 31.8052 50.7118 32.3373 51.1041 32.7296C51.4964 33.1219 52.0285 33.3422 52.5833 33.3422C52.858 33.3422 53.13 33.2881 53.3838 33.183C53.6376 33.0779 53.8682 32.9238 54.0624 32.7296L56.7499 30.0212L59.4374 32.7296C59.8297 33.1219 60.3618 33.3422 60.9166 33.3422C61.4714 33.3422 62.0034 33.1219 62.3957 32.7296C62.788 32.3373 63.0084 31.8052 63.0084 31.2504C63.0084 30.6956 62.788 30.1635 62.3957 29.7712L59.6874 27.0837Z" fill="url(#paint3_linear_71_6613)" style=""/>
<path d="M57.521 43.8957C50.3396 41.0211 42.3273 41.0211 35.146 43.8957C34.8915 43.997 34.6595 44.1473 34.4632 44.3382C34.2669 44.5291 34.1101 44.7568 34.0017 45.0083C33.8934 45.2598 33.8357 45.5301 33.8318 45.8039C33.828 46.0777 33.8781 46.3496 33.9793 46.6041C34.1837 47.1179 34.5839 47.5295 35.0919 47.7483C35.3433 47.8567 35.6137 47.9144 35.8875 47.9182C36.1613 47.9221 36.4332 47.872 36.6876 47.7707C42.8752 45.2709 49.7917 45.2709 55.9793 47.7707C56.2337 47.8722 56.5056 47.9225 56.7795 47.9188C57.0534 47.9151 57.3239 47.8574 57.5754 47.749C57.827 47.6407 58.0547 47.4838 58.2455 47.2873C58.4364 47.0908 58.5866 46.8587 58.6876 46.6041C58.7891 46.3497 58.8394 46.0777 58.8357 45.8039C58.832 45.53 58.7743 45.2595 58.6659 45.008C58.5576 44.7564 58.4007 44.5287 58.2042 44.3378C58.0077 44.147 57.7756 43.9968 57.521 43.8957Z" fill="url(#paint4_linear_71_6613)" style=""/>
<defs>
<linearGradient id="paint0_linear_71_6613" x1="46.3333" y1="89.5835" x2="46.3333" y2="2.0835" gradientUnits="userSpaceOnUse">
<stop stop-color="#D3E6F5" style="stop-color:#D3E6F5;stop-color:color(display-p3 0.8275 0.9020 0.9608);stop-opacity:1;"/>
<stop offset="1" stop-color="#F0F7FC" style="stop-color:#F0F7FC;stop-color:color(display-p3 0.9412 0.9686 0.9882);stop-opacity:1;"/>
</linearGradient>
<linearGradient id="paint1_linear_71_6613" x1="75.5" y1="97.9167" x2="75.5" y2="68.75" gradientUnits="userSpaceOnUse">
<stop stop-color="#FE9661" style="stop-color:#FE9661;stop-color:color(display-p3 0.9961 0.5882 0.3804);stop-opacity:1;"/>
<stop offset="1" stop-color="#FFB369" style="stop-color:#FFB369;stop-color:color(display-p3 1.0000 0.7020 0.4118);stop-opacity:1;"/>
</linearGradient>
<linearGradient id="paint2_linear_71_6613" x1="35.9165" y1="33.3337" x2="35.9165" y2="20.8337" gradientUnits="userSpaceOnUse">
<stop stop-color="#54A5FF" style="stop-color:#54A5FF;stop-color:color(display-p3 0.3294 0.6471 1.0000);stop-opacity:1;"/>
<stop offset="1" stop-color="#8AD3FE" style="stop-color:#8AD3FE;stop-color:color(display-p3 0.5412 0.8275 0.9961);stop-opacity:1;"/>
</linearGradient>
<linearGradient id="paint3_linear_71_6613" x1="56.7499" y1="33.3337" x2="56.7499" y2="0.000389742" gradientUnits="userSpaceOnUse">
<stop stop-color="#54A5FF" style="stop-color:#54A5FF;stop-color:color(display-p3 0.3294 0.6471 1.0000);stop-opacity:1;"/>
<stop offset="1" stop-color="#8AD3FE" style="stop-color:#8AD3FE;stop-color:color(display-p3 0.5412 0.8275 0.9961);stop-opacity:1;"/>
</linearGradient>
<linearGradient id="paint4_linear_71_6613" x1="46.3335" y1="47.9166" x2="46.3335" y2="41.7291" gradientUnits="userSpaceOnUse">
<stop stop-color="#54A5FF" style="stop-color:#54A5FF;stop-color:color(display-p3 0.3294 0.6471 1.0000);stop-opacity:1;"/>
<stop offset="1" stop-color="#8AD3FE" style="stop-color:#8AD3FE;stop-color:color(display-p3 0.5412 0.8275 0.9961);stop-opacity:1;"/>
</linearGradient>
</defs>
</svg>
