<svg width="25" height="24" viewBox="0 0 25 24" fill="none" xmlns="http://www.w3.org/2000/svg">
<g clip-path="url(#clip0_99_4934)">
<path d="M6.34961 0.450195H12.8535C13.6287 0.450254 14.3745 0.736236 14.9502 1.25L15.0635 1.35547L20.8604 7.0625C21.4617 7.65458 21.7998 8.46372 21.7998 9.30762V20.4004C21.7996 22.1398 20.3898 23.5496 18.6504 23.5498H6.34961C4.61022 23.5496 3.20041 22.1398 3.2002 20.4004V3.59961C3.2004 1.91459 4.52345 0.538663 6.1875 0.454102L6.34961 0.450195Z" fill="white" stroke="#D1D1D1" style="fill:white;fill-opacity:1;stroke:#D1D1D1;stroke:color(display-p3 0.8200 0.8200 0.8200);stroke-opacity:1;" stroke-width="0.9"/>
<path d="M14 0.75V5.85C14 7.17548 15.0745 8.25 16.4 8.25H21.5" stroke="#D1D1D1" style="stroke:#D1D1D1;stroke:color(display-p3 0.8200 0.8200 0.8200);stroke-opacity:1;" stroke-width="0.9"/>
<path d="M0.5 12.25C0.5 11.0074 1.50736 10 2.75 10H17.75C18.9926 10 20 11.0074 20 12.25V18.75C20 19.9926 18.9926 21 17.75 21H2.75C1.50736 21 0.5 19.9926 0.5 18.75V12.25Z" fill="#1FC16B" style="fill:#1FC16B;fill:color(display-p3 0.1221 0.7579 0.4202);fill-opacity:1;"/>
<path d="M7.33203 14.3195H6.45547C6.43047 14.1758 6.38438 14.0484 6.31719 13.9375C6.25 13.825 6.16641 13.7297 6.06641 13.6516C5.96641 13.5734 5.85234 13.5148 5.72422 13.4758C5.59766 13.4352 5.46094 13.4148 5.31406 13.4148C5.05313 13.4148 4.82188 13.4805 4.62031 13.6117C4.41875 13.7414 4.26094 13.932 4.14688 14.1836C4.03281 14.4336 3.97578 14.7391 3.97578 15.1C3.97578 15.4672 4.03281 15.7766 4.14688 16.0281C4.2625 16.2781 4.42031 16.4672 4.62031 16.5953C4.82188 16.7219 5.05234 16.7852 5.31172 16.7852C5.45547 16.7852 5.58984 16.7664 5.71484 16.7289C5.84141 16.6898 5.95469 16.6328 6.05469 16.5578C6.15625 16.4828 6.24141 16.3906 6.31016 16.2812C6.38047 16.1719 6.42891 16.0469 6.45547 15.9062L7.33203 15.9109C7.29922 16.1391 7.22813 16.3531 7.11875 16.5531C7.01094 16.7531 6.86953 16.9297 6.69453 17.0828C6.51953 17.2344 6.31484 17.3531 6.08047 17.4391C5.84609 17.5234 5.58594 17.5656 5.3 17.5656C4.87813 17.5656 4.50156 17.468 4.17031 17.2727C3.83906 17.0773 3.57813 16.7953 3.3875 16.4266C3.19688 16.0578 3.10156 15.6156 3.10156 15.1C3.10156 14.5828 3.19766 14.1406 3.38984 13.7734C3.58203 13.4047 3.84375 13.1227 4.175 12.9273C4.50625 12.732 4.88125 12.6344 5.3 12.6344C5.56719 12.6344 5.81563 12.6719 6.04531 12.7469C6.275 12.8219 6.47969 12.932 6.65938 13.0773C6.83906 13.2211 6.98672 13.3977 7.10234 13.607C7.21953 13.8148 7.29609 14.0523 7.33203 14.3195ZM10.8689 14.0195C10.847 13.8148 10.7549 13.6555 10.5924 13.5414C10.4314 13.4273 10.222 13.3703 9.96423 13.3703C9.78298 13.3703 9.62751 13.3977 9.49782 13.4523C9.36813 13.507 9.26891 13.5812 9.20016 13.675C9.13141 13.7687 9.09626 13.8758 9.0947 13.9961C9.0947 14.0961 9.11735 14.1828 9.16266 14.2562C9.20954 14.3297 9.27282 14.3922 9.35251 14.4437C9.4322 14.4937 9.52048 14.5359 9.61735 14.5703C9.71423 14.6047 9.81188 14.6336 9.91032 14.657L10.3603 14.7695C10.5416 14.8117 10.7158 14.8687 10.883 14.9406C11.0517 15.0125 11.2025 15.1031 11.3353 15.2125C11.4697 15.3219 11.5759 15.4539 11.6541 15.6086C11.7322 15.7633 11.7713 15.9445 11.7713 16.1523C11.7713 16.4336 11.6994 16.6812 11.5556 16.8953C11.4119 17.1078 11.2041 17.2742 10.9322 17.3945C10.6619 17.5133 10.3345 17.5727 9.95016 17.5727C9.57673 17.5727 9.25251 17.5148 8.97751 17.3992C8.70407 17.2836 8.49001 17.1148 8.33532 16.893C8.1822 16.6711 8.09938 16.4008 8.08688 16.082H8.94235C8.95485 16.2492 9.00641 16.3883 9.09704 16.4992C9.18766 16.6102 9.30563 16.693 9.45095 16.7477C9.59782 16.8023 9.76188 16.8297 9.94313 16.8297C10.1322 16.8297 10.2978 16.8016 10.44 16.7453C10.5838 16.6875 10.6963 16.6078 10.7775 16.5062C10.8588 16.4031 10.9002 16.2828 10.9017 16.1453C10.9002 16.0203 10.8634 15.9172 10.7916 15.8359C10.7197 15.7531 10.6189 15.6844 10.4892 15.6297C10.3611 15.5734 10.2111 15.5234 10.0392 15.4797L9.49313 15.3391C9.09782 15.2375 8.78532 15.0836 8.55563 14.8773C8.32751 14.6695 8.21345 14.3937 8.21345 14.05C8.21345 13.7672 8.29001 13.5195 8.44313 13.307C8.59782 13.0945 8.80798 12.9297 9.0736 12.8125C9.33923 12.6937 9.64001 12.6344 9.97595 12.6344C10.3166 12.6344 10.615 12.6937 10.8713 12.8125C11.1291 12.9297 11.3314 13.093 11.4783 13.3023C11.6252 13.5102 11.7009 13.7492 11.7056 14.0195H10.8689ZM13.3206 12.7L14.5699 16.4781H14.6191L15.866 12.7H16.8222L15.13 17.5H14.0566L12.3667 12.7H13.3206Z" fill="white" style="fill:white;fill-opacity:1;"/>
</g>
<defs>
<clipPath id="clip0_99_4934">
<rect width="24" height="24" fill="white" style="fill:white;fill-opacity:1;" transform="translate(0.5)"/>
</clipPath>
</defs>
</svg>
