<svg width="41" height="40" viewBox="0 0 41 40" fill="none" xmlns="http://www.w3.org/2000/svg">
<path d="M0.5 10C0.5 4.47715 4.97715 0 10.5 0H30.5C36.0228 0 40.5 4.47715 40.5 10V30C40.5 35.5228 36.0228 40 30.5 40H10.5C4.97715 40 0.5 35.5228 0.5 30V10Z" fill="#FFEBEC" style="fill:#FFEBEC;fill:color(display-p3 1.0000 0.9200 0.9253);fill-opacity:1;"/>
<path d="M20.5 29C15.5293 29 11.5 24.9707 11.5 20C11.5 15.0293 15.5293 11 20.5 11C25.4707 11 29.5 15.0293 29.5 20C29.5 24.9707 25.4707 29 20.5 29ZM19.6 22.7V24.5H21.4V22.7H19.6ZM19.6 15.5V20.9H21.4V15.5H19.6Z" fill="#FB3748" style="fill:#FB3748;fill:color(display-p3 0.9826 0.2174 0.2826);fill-opacity:1;"/>
</svg>
