<svg width="25" height="25" viewBox="0 0 25 25" fill="none" xmlns="http://www.w3.org/2000/svg">
<g clip-path="url(#clip0_402_19336)">
<path d="M12.2032 2.01855C14.9202 2.01855 15.2592 2.02855 16.3252 2.07855C17.3902 2.12855 18.1152 2.29555 18.7532 2.54355C19.4132 2.79755 19.9692 3.14155 20.5252 3.69655C21.0337 4.19645 21.4271 4.80114 21.6782 5.46855C21.9252 6.10556 22.0932 6.83155 22.1432 7.89655C22.1902 8.96256 22.2032 9.30156 22.2032 12.0186C22.2032 14.7356 22.1932 15.0746 22.1432 16.1406C22.0932 17.2056 21.9252 17.9306 21.6782 18.5686C21.4279 19.2363 21.0343 19.8412 20.5252 20.3406C20.0252 20.8489 19.4205 21.2423 18.7532 21.4936C18.1162 21.7406 17.3902 21.9086 16.3252 21.9586C15.2592 22.0056 14.9202 22.0186 12.2032 22.0186C9.48619 22.0186 9.14719 22.0086 8.08119 21.9586C7.01619 21.9086 6.29119 21.7406 5.65319 21.4936C4.98551 21.243 4.38071 20.8495 3.88119 20.3406C3.37259 19.8407 2.97912 19.236 2.72819 18.5686C2.48019 17.9316 2.31319 17.2056 2.26319 16.1406C2.21619 15.0746 2.20319 14.7356 2.20319 12.0186C2.20319 9.30156 2.21319 8.96256 2.26319 7.89655C2.31319 6.83055 2.48019 6.10655 2.72819 5.46855C2.97842 4.80073 3.37199 4.19588 3.88119 3.69655C4.38086 3.18779 4.98561 2.79428 5.65319 2.54355C6.29119 2.29555 7.01519 2.12855 8.08119 2.07855C9.14719 2.03155 9.48619 2.01855 12.2032 2.01855ZM12.2032 7.01856C10.8771 7.01856 9.60533 7.54534 8.66765 8.48302C7.72997 9.4207 7.20319 10.6925 7.20319 12.0186C7.20319 13.3446 7.72997 14.6164 8.66765 15.5541C9.60533 16.4918 10.8771 17.0186 12.2032 17.0186C13.5293 17.0186 14.801 16.4918 15.7387 15.5541C16.6764 14.6164 17.2032 13.3446 17.2032 12.0186C17.2032 10.6925 16.6764 9.4207 15.7387 8.48302C14.801 7.54534 13.5293 7.01856 12.2032 7.01856ZM18.7032 6.76856C18.7032 6.43703 18.5715 6.11909 18.3371 5.88467C18.1027 5.65025 17.7847 5.51856 17.4532 5.51856C17.1217 5.51856 16.8037 5.65025 16.5693 5.88467C16.3349 6.11909 16.2032 6.43703 16.2032 6.76856C16.2032 7.10008 16.3349 7.41802 16.5693 7.65244C16.8037 7.88686 17.1217 8.01856 17.4532 8.01856C17.7847 8.01856 18.1027 7.88686 18.3371 7.65244C18.5715 7.41802 18.7032 7.10008 18.7032 6.76856ZM12.2032 9.01856C12.9988 9.01856 13.7619 9.33463 14.3245 9.89723C14.8871 10.4598 15.2032 11.2229 15.2032 12.0186C15.2032 12.8142 14.8871 13.5773 14.3245 14.1399C13.7619 14.7025 12.9988 15.0186 12.2032 15.0186C11.4075 15.0186 10.6445 14.7025 10.0819 14.1399C9.51926 13.5773 9.20319 12.8142 9.20319 12.0186C9.20319 11.2229 9.51926 10.4598 10.0819 9.89723C10.6445 9.33463 11.4075 9.01856 12.2032 9.01856Z" fill="url(#paint0_linear_402_19336)" style=""/>
</g>
<defs>
<linearGradient id="paint0_linear_402_19336" x1="12.203" y1="22.0107" x2="12.203" y2="1.98399" gradientUnits="userSpaceOnUse">
<stop stop-color="#1D86FB" style="stop-color:#1D86FB;stop-color:color(display-p3 0.1152 0.5271 0.9848);stop-opacity:1;"/>
<stop offset="1" stop-color="#0066FF" style="stop-color:#0066FF;stop-color:color(display-p3 0.0000 0.4000 1.0000);stop-opacity:1;"/>
</linearGradient>
<clipPath id="clip0_402_19336">
<rect width="24" height="24" fill="white" style="fill:white;fill-opacity:1;" transform="translate(0.200012 0.100586)"/>
</clipPath>
</defs>
</svg>
