<svg width="32" height="32" viewBox="0 0 32 32" fill="none" xmlns="http://www.w3.org/2000/svg">
<path d="M7.79962 0.599609H16.4705C17.5043 0.599609 18.4997 0.980904 19.2674 1.66602L19.4178 1.80762L27.1463 9.41699C27.9481 10.2064 28.4002 11.285 28.4002 12.4102V27.2002C28.4001 29.5196 26.5195 31.4003 24.2 31.4004H7.79962C5.48018 31.4003 3.59953 29.5196 3.59943 27.2002V4.7998C3.59953 2.48036 5.48018 0.599715 7.79962 0.599609Z" fill="white" stroke="#D1D1D1" style="fill:white;fill-opacity:1;stroke:#D1D1D1;stroke:color(display-p3 0.8200 0.8200 0.8200);stroke-opacity:1;" stroke-width="1.2"/>
<path d="M18 1V7.8C18 9.56731 19.4327 11 21.2 11H28" stroke="#D1D1D1" style="stroke:#D1D1D1;stroke:color(display-p3 0.8200 0.8200 0.8200);stroke-opacity:1;" stroke-width="1.2"/>
<path d="M0 17C0 15.3431 1.34315 14 3 14H21C22.6569 14 24 15.3431 24 17V25C24 26.6569 22.6569 28 21 28H3C1.34315 28 0 26.6569 0 25V17Z" fill="#335CFF" style="fill:#335CFF;fill:color(display-p3 0.2000 0.3609 1.0000);fill-opacity:1;"/>
<path d="M6.15625 17.6H7.30625V22.1C7.30417 22.5125 7.21667 22.8677 7.04375 23.1656C6.87083 23.4615 6.62917 23.6896 6.31875 23.85C6.01042 24.0083 5.65104 24.0875 5.24063 24.0875C4.86563 24.0875 4.52813 24.0208 4.22813 23.8875C3.93021 23.7521 3.69375 23.5521 3.51875 23.2875C3.34375 23.0229 3.25625 22.6937 3.25625 22.3H4.40938C4.41146 22.4729 4.44896 22.6219 4.52188 22.7469C4.59688 22.8719 4.7 22.9677 4.83125 23.0344C4.9625 23.101 5.11354 23.1344 5.28438 23.1344C5.46979 23.1344 5.62708 23.0958 5.75625 23.0187C5.88542 22.9396 5.98333 22.8229 6.05 22.6687C6.11875 22.5146 6.15417 22.325 6.15625 22.1V17.6ZM8.74006 24V17.6H11.1401C11.6317 17.6 12.0442 17.6917 12.3776 17.875C12.713 18.0583 12.9661 18.3104 13.1369 18.6312C13.3099 18.95 13.3963 19.3125 13.3963 19.7187C13.3963 20.1292 13.3099 20.4937 13.1369 20.8125C12.964 21.1312 12.7088 21.3823 12.3713 21.5656C12.0338 21.7469 11.6182 21.8375 11.1244 21.8375H9.53381V20.8844H10.9682C11.2557 20.8844 11.4911 20.8344 11.6744 20.7344C11.8578 20.6344 11.9932 20.4969 12.0807 20.3219C12.1703 20.1469 12.2151 19.9458 12.2151 19.7187C12.2151 19.4917 12.1703 19.2917 12.0807 19.1187C11.9932 18.9458 11.8567 18.8115 11.6713 18.7156C11.488 18.6177 11.2515 18.5687 10.9619 18.5687H9.89944V24H8.74006ZM18.8668 19.6437C18.8148 19.475 18.7429 19.324 18.6512 19.1906C18.5616 19.0552 18.4533 18.9396 18.3262 18.8437C18.2012 18.7479 18.0575 18.676 17.895 18.6281C17.7325 18.5781 17.5554 18.5531 17.3637 18.5531C17.02 18.5531 16.7137 18.6396 16.445 18.8125C16.1762 18.9854 15.9648 19.2396 15.8106 19.575C15.6585 19.9083 15.5825 20.3146 15.5825 20.7937C15.5825 21.2771 15.6585 21.6865 15.8106 22.0219C15.9627 22.3573 16.1741 22.6125 16.445 22.7875C16.7158 22.9604 17.0304 23.0469 17.3887 23.0469C17.7137 23.0469 17.995 22.9844 18.2325 22.8594C18.4721 22.7344 18.6564 22.5573 18.7856 22.3281C18.9148 22.0969 18.9793 21.826 18.9793 21.5156L19.2418 21.5562H17.5043V20.65H20.1012V21.4187C20.1012 21.9667 19.9846 22.4406 19.7512 22.8406C19.5179 23.2406 19.1971 23.549 18.7887 23.7656C18.3804 23.9802 17.9116 24.0875 17.3825 24.0875C16.7929 24.0875 16.2752 23.9552 15.8293 23.6906C15.3856 23.424 15.0387 23.0458 14.7887 22.5562C14.5408 22.0646 14.4168 21.4812 14.4168 20.8062C14.4168 20.2896 14.4898 19.8281 14.6356 19.4219C14.7835 19.0156 14.9898 18.6708 15.2543 18.3875C15.5189 18.1021 15.8293 17.8854 16.1856 17.7375C16.5418 17.5875 16.9293 17.5125 17.3481 17.5125C17.7023 17.5125 18.0325 17.5646 18.3387 17.6687C18.645 17.7708 18.9168 17.9167 19.1543 18.1062C19.3939 18.2958 19.5908 18.5208 19.745 18.7812C19.8991 19.0417 20.0002 19.3292 20.0481 19.6437H18.8668Z" fill="white" style="fill:white;fill-opacity:1;"/>
</svg>
