<svg width="24" height="25" viewBox="0 0 24 25" fill="none" xmlns="http://www.w3.org/2000/svg">
<path d="M7.17783 9.64761L6.97235 10.119C6.82197 10.4641 6.34464 10.4641 6.19426 10.119L5.9888 9.64761C5.62255 8.80708 4.96287 8.13786 4.13972 7.77175L3.50671 7.4902C3.16443 7.33796 3.16443 6.83986 3.50671 6.68762L4.10433 6.4218C4.94865 6.04628 5.62014 5.35229 5.9801 4.48321L6.1911 3.97379C6.33815 3.61876 6.82847 3.61876 6.97552 3.97379L7.18651 4.48321C7.54647 5.35229 8.21798 6.04628 9.06233 6.4218L9.6599 6.68762C10.0023 6.83986 10.0023 7.33796 9.6599 7.4902L9.0269 7.77175C8.20376 8.13786 7.54406 8.80708 7.17783 9.64761ZM11.3651 12.6824L15.3333 19.9575H21.1667L14.5 7.45752L11.3651 12.6824ZM13.6667 19.9575L8.66666 10.7909L3.66666 19.9575H13.6667Z" fill="url(#paint0_linear_323_6719)" style=""/>
<defs>
<linearGradient id="paint0_linear_323_6719" x1="12.2081" y1="19.9511" x2="12.2081" y2="3.67944" gradientUnits="userSpaceOnUse">
<stop stop-color="#1D86FB" style="stop-color:#1D86FB;stop-color:color(display-p3 0.1152 0.5271 0.9848);stop-opacity:1;"/>
<stop offset="1" stop-color="#0066FF" style="stop-color:#0066FF;stop-color:color(display-p3 0.0000 0.4000 1.0000);stop-opacity:1;"/>
</linearGradient>
</defs>
</svg>
