<svg width="32" height="32" viewBox="0 0 32 32" fill="none" xmlns="http://www.w3.org/2000/svg">
<path d="M7.79962 0.599609H16.4705C17.5043 0.599609 18.4997 0.980904 19.2674 1.66602L19.4178 1.80762L27.1463 9.41699C27.9481 10.2064 28.4002 11.285 28.4002 12.4102V27.2002C28.4001 29.5196 26.5195 31.4003 24.2 31.4004H7.79962C5.48018 31.4003 3.59953 29.5196 3.59943 27.2002V4.7998C3.59953 2.48036 5.48018 0.599715 7.79962 0.599609Z" fill="white" stroke="#D1D1D1" style="fill:white;fill-opacity:1;stroke:#D1D1D1;stroke:color(display-p3 0.8200 0.8200 0.8200);stroke-opacity:1;" stroke-width="1.2"/>
<path d="M18 1V7.8C18 9.56731 19.4327 11 21.2 11H28" stroke="#D1D1D1" style="stroke:#D1D1D1;stroke:color(display-p3 0.8200 0.8200 0.8200);stroke-opacity:1;" stroke-width="1.2"/>
<path d="M0 17C0 15.3431 1.34315 14 3 14H23C24.6569 14 26 15.3431 26 17V25C26 26.6569 24.6569 28 23 28H3C1.34315 28 0 26.6569 0 25V17Z" fill="#1FC16B" style="fill:#1FC16B;fill:color(display-p3 0.1221 0.7579 0.4202);fill-opacity:1;"/>
<path d="M3.63125 24V17.6H6.03125C6.52292 17.6 6.93542 17.6917 7.26875 17.875C7.60417 18.0583 7.85729 18.3104 8.02813 18.6312C8.20104 18.95 8.2875 19.3125 8.2875 19.7187C8.2875 20.1292 8.20104 20.4937 8.02813 20.8125C7.85521 21.1312 7.6 21.3823 7.2625 21.5656C6.925 21.7469 6.50938 21.8375 6.01563 21.8375H4.425V20.8844H5.85938C6.14688 20.8844 6.38229 20.8344 6.56563 20.7344C6.74896 20.6344 6.88438 20.4969 6.97188 20.3219C7.06146 20.1469 7.10625 19.9458 7.10625 19.7187C7.10625 19.4917 7.06146 19.2917 6.97188 19.1187C6.88438 18.9458 6.74792 18.8115 6.5625 18.7156C6.37917 18.6177 6.14271 18.5687 5.85313 18.5687H4.79063V24H3.63125ZM14.7299 17.6V24H13.6987L10.683 19.6406H10.6299V24H9.47053V17.6H10.508L13.5205 21.9625H13.5768V17.6H14.7299ZM20.4567 19.6437C20.4046 19.475 20.3327 19.324 20.2411 19.1906C20.1515 19.0552 20.0431 18.9396 19.9161 18.8437C19.7911 18.7479 19.6473 18.676 19.4848 18.6281C19.3223 18.5781 19.1452 18.5531 18.9536 18.5531C18.6098 18.5531 18.3036 18.6396 18.0348 18.8125C17.7661 18.9854 17.5546 19.2396 17.4004 19.575C17.2484 19.9083 17.1723 20.3146 17.1723 20.7937C17.1723 21.2771 17.2484 21.6865 17.4004 22.0219C17.5525 22.3573 17.764 22.6125 18.0348 22.7875C18.3056 22.9604 18.6202 23.0469 18.9786 23.0469C19.3036 23.0469 19.5848 22.9844 19.8223 22.8594C20.0619 22.7344 20.2463 22.5573 20.3754 22.3281C20.5046 22.0969 20.5692 21.826 20.5692 21.5156L20.8317 21.5562H19.0942V20.65H21.6911V21.4187C21.6911 21.9667 21.5744 22.4406 21.3411 22.8406C21.1077 23.2406 20.7869 23.549 20.3786 23.7656C19.9702 23.9802 19.5015 24.0875 18.9723 24.0875C18.3827 24.0875 17.865 23.9552 17.4192 23.6906C16.9754 23.424 16.6286 23.0458 16.3786 22.5562C16.1306 22.0646 16.0067 21.4812 16.0067 20.8062C16.0067 20.2896 16.0796 19.8281 16.2254 19.4219C16.3734 19.0156 16.5796 18.6708 16.8442 18.3875C17.1088 18.1021 17.4192 17.8854 17.7754 17.7375C18.1317 17.5875 18.5192 17.5125 18.9379 17.5125C19.2921 17.5125 19.6223 17.5646 19.9286 17.6687C20.2348 17.7708 20.5067 17.9167 20.7442 18.1062C20.9838 18.2958 21.1806 18.5208 21.3348 18.7812C21.489 19.0417 21.59 19.3292 21.6379 19.6437H20.4567Z" fill="white" style="fill:white;fill-opacity:1;"/>
</svg>
