<svg width="25" height="25" viewBox="0 0 25 25" fill="none" xmlns="http://www.w3.org/2000/svg">
<g clip-path="url(#clip0_402_19333)">
<path d="M7.86769 22.7085C17.7599 22.7085 23.1707 14.5123 23.1707 7.40544C23.1707 7.17212 23.1707 6.94012 23.155 6.71074C24.2077 5.94857 25.1163 5.00495 25.8381 3.92408C24.8564 4.35926 23.815 4.64468 22.7486 4.77083C23.8715 4.09849 24.7118 3.04109 25.1132 1.79542C24.0577 2.42181 22.9029 2.86333 21.6987 3.10093C20.8879 2.23815 19.8152 1.66675 18.6468 1.47521C17.4784 1.28367 16.2795 1.48268 15.2356 2.04141C14.1917 2.60014 13.3612 3.48744 12.8725 4.56591C12.3839 5.64437 12.2644 6.85385 12.5327 8.00707C10.3943 7.89991 8.30234 7.34426 6.39263 6.37619C4.48292 5.40813 2.79813 4.04929 1.44763 2.38788C0.7599 3.57176 0.549224 4.97323 0.858492 6.30698C1.16776 7.64073 1.97372 8.80647 3.11228 9.56687C2.2567 9.5421 1.41962 9.31192 0.671663 8.89576V8.96392C0.672173 10.2056 1.10211 11.4089 1.88856 12.3697C2.67502 13.3306 3.76958 13.9898 4.98666 14.2358C4.19472 14.4517 3.36381 14.483 2.55783 14.3275C2.90146 15.3964 3.57062 16.3311 4.4717 17.0009C5.37277 17.6708 6.46069 18.0421 7.58325 18.0632C6.46796 18.9395 5.19085 19.5873 3.82497 19.9697C2.45909 20.352 1.03123 20.4614 -0.376938 20.2914C2.08282 21.87 4.94496 22.7073 7.86769 22.7032" fill="url(#paint0_linear_402_19333)" style=""/>
</g>
<defs>
<linearGradient id="paint0_linear_402_19333" x1="12.7303" y1="22.7001" x2="12.7303" y2="1.36748" gradientUnits="userSpaceOnUse">
<stop stop-color="#1D86FB" style="stop-color:#1D86FB;stop-color:color(display-p3 0.1152 0.5271 0.9848);stop-opacity:1;"/>
<stop offset="1" stop-color="#0066FF" style="stop-color:#0066FF;stop-color:color(display-p3 0.0000 0.4000 1.0000);stop-opacity:1;"/>
</linearGradient>
<clipPath id="clip0_402_19333">
<rect width="24" height="24" fill="white" style="fill:white;fill-opacity:1;" transform="translate(0.949997 0.100586)"/>
</clipPath>
</defs>
</svg>
