<svg width="25" height="25" viewBox="0 0 25 25" fill="none" xmlns="http://www.w3.org/2000/svg">
<g clip-path="url(#clip0_402_19330)">
<path d="M2.70242 22.1006L4.05442 17.1326C3.16356 15.6054 2.69552 13.8686 2.69842 12.1006C2.69842 6.57759 7.17542 2.10059 12.6984 2.10059C18.2214 2.10059 22.6984 6.57759 22.6984 12.1006C22.6984 17.6236 18.2214 22.1006 12.6984 22.1006C10.9312 22.1034 9.19508 21.6358 7.66842 20.7456L2.70242 22.1006ZM9.08942 7.40859C8.96029 7.4166 8.8341 7.45062 8.71842 7.50859C8.60994 7.57002 8.51092 7.64681 8.42442 7.73659C8.30442 7.84959 8.23642 7.94759 8.16342 8.04259C7.79383 8.52358 7.59503 9.114 7.59842 9.72059C7.60042 10.2106 7.72842 10.6876 7.92842 11.1336C8.33742 12.0356 9.01042 12.9906 9.89942 13.8756C10.1134 14.0886 10.3224 14.3026 10.5474 14.5016C11.6508 15.473 12.9657 16.1736 14.3874 16.5476L14.9564 16.6346C15.1414 16.6446 15.3264 16.6306 15.5124 16.6216C15.8037 16.6066 16.088 16.5277 16.3454 16.3906C16.5114 16.3026 16.5894 16.2586 16.7284 16.1706C16.7284 16.1706 16.7714 16.1426 16.8534 16.0806C16.9884 15.9806 17.0714 15.9096 17.1834 15.7926C17.2664 15.7066 17.3384 15.6056 17.3934 15.4906C17.4714 15.3276 17.5494 15.0166 17.5814 14.7576C17.6054 14.5596 17.5984 14.4516 17.5954 14.3846C17.5914 14.2776 17.5024 14.1666 17.4054 14.1196L16.8234 13.8586C16.8234 13.8586 15.9534 13.4796 15.4224 13.2376C15.3664 13.2132 15.3064 13.1993 15.2454 13.1966C15.177 13.1896 15.1079 13.1973 15.0427 13.2192C14.9775 13.2411 14.9177 13.2767 14.8674 13.3236V13.3216C14.8624 13.3216 14.7954 13.3786 14.0724 14.2546C14.0309 14.3103 13.9738 14.3525 13.9082 14.3756C13.8427 14.3988 13.7717 14.4019 13.7044 14.3846C13.6393 14.3672 13.5754 14.3451 13.5134 14.3186C13.3894 14.2666 13.3464 14.2466 13.2614 14.2096L13.2564 14.2076C12.6843 13.9578 12.1546 13.6204 11.6864 13.2076C11.5604 13.0976 11.4434 12.9776 11.3234 12.8616C10.93 12.4848 10.5871 12.0586 10.3034 11.5936L10.2444 11.4986C10.202 11.4348 10.1678 11.3659 10.1424 11.2936C10.1044 11.1466 10.2034 11.0286 10.2034 11.0286C10.2034 11.0286 10.4464 10.7626 10.5594 10.6186C10.6535 10.4989 10.7413 10.3744 10.8224 10.2456C10.9404 10.0556 10.9774 9.86059 10.9154 9.70959C10.6354 9.02559 10.3454 8.34459 10.0474 7.66859C9.98842 7.53459 9.81342 7.43859 9.65442 7.41959C9.60042 7.41359 9.54642 7.40759 9.49242 7.40359C9.35813 7.39691 9.22356 7.39925 9.08942 7.40859Z" fill="url(#paint0_linear_402_19330)" style=""/>
</g>
<defs>
<linearGradient id="paint0_linear_402_19330" x1="12.6982" y1="22.0927" x2="12.6982" y2="2.06602" gradientUnits="userSpaceOnUse">
<stop stop-color="#1D86FB" style="stop-color:#1D86FB;stop-color:color(display-p3 0.1152 0.5271 0.9848);stop-opacity:1;"/>
<stop offset="1" stop-color="#0066FF" style="stop-color:#0066FF;stop-color:color(display-p3 0.0000 0.4000 1.0000);stop-opacity:1;"/>
</linearGradient>
<clipPath id="clip0_402_19330">
<rect width="24" height="24" fill="white" style="fill:white;fill-opacity:1;" transform="translate(0.699997 0.100586)"/>
</clipPath>
</defs>
</svg>
